# xmcd CD database generated by RipIT
#
# Track frame offsets:
# 150
# 13312
# 28775
# 37420
# 56878
# 67508
# 79831
# 93526
# 114373
# 126261
# 143658
# 157914
#
# Disc length: 2324 seconds
#
# Revision: 0
# Processed by: cddbd v1.5.2PL0 Copyright (c) Steve Scherf et al.
# Submitted via: RipIT 3.8.0 www.suwald.com/ripit/ripit.html on 2011-08-26 at 21:34
#
DISCID=a009120c
DTITLE=Julie Hanify, David Mahler, Larry Polansky - Too Late
DYEAR=2004
DGENRE=Country
TTITLE0=Angel Baby Love
TTITLE1=What Am I Living For
TTITLE2=One Night
TTITLE3=No Sweeter Flower
TTITLE4=Men Of The Fields
TTITLE5=Bring Me Morning
TTITLE6=Elvis Is Watching You
TTITLE7=Nothing Matters But You
TTITLE8=Too Late
TTITLE9=Even A Gray Day
TTITLE10=All Is Well
TTITLE11=Lullabies
EXTD=
EXTT0=
EXTT1=
EXTT2=
EXTT3=
EXTT4=
EXTT5=
EXTT6=
EXTT7=
EXTT8=
EXTT9=
EXTT10=
EXTT11=
PLAYORDER=
